0
SECTION
2
HEADER
9
$INSUNITS
70
1
9
$ACADVER
1
AC1014
9
$HANDSEED
5
FFFF
0
ENDSEC
0
SECTION
2
TABLES
0
TABLE
2
VPORT
5
8
100
AcDbSymbolTable
0
ENDTAB
0
TABLE
2
LTYPE
5
5
100
AcDbSymbolTable
0
LTYPE
5
14
100
AcDbSymbolTableRecord
100
AcDbLinetypeTableRecord
2
BYBLOCK
70
0
0
LTYPE
5
15
100
AcDbSymbolTableRecord
100
AcDbLinetypeTableRecord
2
BYLAYER
70
0
0
ENDTAB
0
TABLE
2
LAYER
5
2
100
AcDbSymbolTable
70
2
0
LAYER
5
50
100
AcDbSymbolTableRecord
100
AcDbLayerTableRecord
2
0
70
0
6
CONTINUOUS
0
ENDTAB
0
TABLE
2
STYLE
5
3
100
AcDbSymbolTable
70
1
0
STYLE
5
11
100
AcDbSymbolTableRecord
100
AcDbTextStyleTableRecord
2
STANDARD
70
0
0
ENDTAB
0
TABLE
2
VIEW
5
6
100
AcDbSymbolTable
70
0
0
ENDTAB
0
TABLE
2
UCS
5
7
100
AcDbSymbolTable
70
0
0
ENDTAB
0
TABLE
2
APPID
5
9
100
AcDbSymbolTable
70
2
0
APPID
5
12
100
AcDbSymbolTableRecord
100
AcDbRegAppTableRecord
2
ACAD
70
0
0
ENDTAB
0
TABLE
2
DIMSTYLE
5
A
100
AcDbSymbolTable
70
1
0
ENDTAB
0
TABLE
2
BLOCK_RECORD
5
1
100
AcDbSymbolTable
70
1
0
BLOCK_RECORD
5
1F
100
AcDbSymbolTableRecord
100
AcDbBlockTableRecord
2
*MODEL_SPACE
0
BLOCK_RECORD
5
1B
100
AcDbSymbolTableRecord
100
AcDbBlockTableRecord
2
*PAPER_SPACE
0
ENDTAB
0
ENDSEC
0
SECTION
2
BLOCKS
0
BLOCK
5
20
100
AcDbEntity
100
AcDbBlockBegin
2
*MODEL_SPACE
0
ENDBLK
5
21
100
AcDbEntity
100
AcDbBlockEnd
0
BLOCK
5
1C
100
AcDbEntity
100
AcDbBlockBegin
2
*PAPER_SPACE
0
ENDBLK
5
1D
100
AcDbEntity
100
AcDbBlockEnd
0
ENDSEC
0
SECTION
2
ENTITIES
0
ARC
5
100
100
AcDbEntity
8
0
100
AcDbCircle
10
-13.911611652351681
20
-35.351611652351679
30
0
40
0.12500000000000464
210
0
220
0
230
1
100
AcDbArc
50
135.0000000000006
51
314.99999999999829
0
LINE
5
101
100
AcDbEntity
8
0
100
AcDbLine
10
-14.000000000000002
20
-35.263223304703359
30
0
11
-14
21
-34.896776695296623
31
0
0
ARC
5
102
100
AcDbEntity
8
0
100
AcDbCircle
10
-13.911611652351681
20
-34.808388347648304
30
0
40
0.12499999999999474
210
0
220
-0
230
1
100
AcDbArc
50
44.999999999997691
51
225
0
LINE
5
103
100
AcDbEntity
8
0
100
AcDbLine
10
-13.823223304703362
20
-34.719999999999992
30
0
11
-10.17677669529664
21
-34.719999999999992
31
0
0
ARC
5
104
100
AcDbEntity
8
0
100
AcDbCircle
10
-10.088388347648321
20
-34.808388347648304
30
0
40
0.12500000000000266
210
0
220
0
230
1
100
AcDbArc
50
-45
51
135.0000000000023
0
LINE
5
105
100
AcDbEntity
8
0
100
AcDbLine
10
-10.000000000000002
20
-34.896776695296623
30
0
11
-10.000000000000002
21
-35.263223304703359
31
0
0
ARC
5
106
100
AcDbEntity
8
0
100
AcDbCircle
10
-10.088388347648321
20
-35.351611652351679
30
0
40
0.12499999999999674
210
0
220
0
230
1
100
AcDbArc
50
-135.00000000000287
51
45
0
LINE
5
107
100
AcDbEntity
8
0
100
AcDbLine
10
-10.176776695296642
20
-35.439999999999991
30
0
11
-13.82322330470336
21
-35.440000000000005
31
0
0
ARC
5
108
100
AcDbEntity
8
0
100
AcDbCircle
10
-10.088388347648317
20
-17.991611652351672
30
0
40
0.12499999999999971
210
0
220
0
230
1
100
AcDbArc
50
-134.99999999999943
51
45.000000000000568
0
LINE
5
109
100
AcDbEntity
8
0
100
AcDbLine
10
-10.176776695296635
20
-18.079999999999991
30
0
11
-13.823223304703362
21
-18.079999999999991
31
0
0
ARC
5
110
100
AcDbEntity
8
0
100
AcDbCircle
10
-13.911611652351681
20
-17.991611652351672
30
0
40
0.12500000000000069
210
0
220
0
230
1
100
AcDbArc
50
135
51
315
0
LINE
5
111
100
AcDbEntity
8
0
100
AcDbLine
10
-14
20
-17.903223304703353
30
0
11
-14
21
-17.536776695296627
31
0
0
ARC
5
112
100
AcDbEntity
8
0
100
AcDbCircle
10
-13.911611652351681
20
-17.448388347648308
30
0
40
0.12500000000000069
210
0
220
-0
230
1
100
AcDbArc
50
45
51
225
0
LINE
5
113
100
AcDbEntity
8
0
100
AcDbLine
10
-13.823223304703362
20
-17.359999999999989
30
0
11
-10.176776695296635
21
-17.359999999999989
31
0
0
ARC
5
114
100
AcDbEntity
8
0
100
AcDbCircle
10
-10.088388347648317
20
-17.448388347648308
30
0
40
0.12500000000000069
210
-0
220
0
230
1
100
AcDbArc
50
-45.000000000002288
51
134.99999999999943
0
LINE
5
115
100
AcDbEntity
8
0
100
AcDbLine
10
-10.000000000000002
20
-17.536776695296631
30
0
11
-10
21
-17.903223304703353
31
0
0
LWPOLYLINE
5
116
100
AcDbEntity
8
0
100
AcDbPolyline
90
8
70
1
43
0.0
10
-10
20
-25.263223304703349
42
-0.99999999999999989
10
-10.176776695296638
20
-25.439999999999991
10
-13.82322330470336
20
-25.440000000000001
42
-0.99999999999999989
10
-14.000000000000002
20
-25.263223304703359
10
-14
20
-24.896776695296627
42
-0.99999999999999989
10
-13.823223304703362
20
-24.719999999999992
10
-10.176776695296633
20
-24.719999999999992
42
-0.99999999999999989
10
-10.000000000000002
20
-24.896776695296627
0
ARC
5
117
100
AcDbEntity
8
0
100
AcDbCircle
10
-10.088388347648316
20
-10.631611652351671
30
0
40
0.12500000000000069
210
0
220
0
230
1
100
AcDbArc
50
-135
51
44.999999999999424
0
LINE
5
118
100
AcDbEntity
8
0
100
AcDbLine
10
-10.176776695296635
20
-10.71999999999999
30
0
11
-13.823223304703362
21
-10.71999999999999
31
0
0
ARC
5
119
100
AcDbEntity
8
0
100
AcDbCircle
10
-13.911611652351681
20
-10.631611652351671
30
0
40
0.12499999999999971
210
0
220
0
230
1
100
AcDbArc
50
135.0000000000006
51
315
0
LINE
5
120
100
AcDbEntity
8
0
100
AcDbLine
10
-14
20
-10.543223304703353
30
0
11
-14
21
-10.176776695296626
31
0
0
ARC
5
121
100
AcDbEntity
8
0
100
AcDbCircle
10
-13.911611652351681
20
-10.088388347648308
30
0
40
0.12500000000000069
210
0
220
-0
230
1
100
AcDbArc
50
45
51
224.99999999999943
0
LINE
5
122
100
AcDbEntity
8
0
100
AcDbLine
10
-13.823223304703362
20
-9.9999999999999893
30
0
11
-10.176776695296635
21
-9.9999999999999893
31
0
0
ARC
5
123
100
AcDbEntity
8
0
100
AcDbCircle
10
-10.088388347648316
20
-10.088388347648308
30
0
40
0.1249999999999987
210
-0
220
0
230
1
100
AcDbArc
50
-45.000000000002288
51
135
0
LINE
5
124
100
AcDbEntity
8
0
100
AcDbLine
10
-10.000000000000002
20
-10.176776695296629
30
0
11
-9.9999999999999964
21
-10.543223304703353
31
0
0
ARC
5
125
100
AcDbEntity
8
0
100
AcDbCircle
10
-50.728388347648327
20
-1.4116116523516735
30
0
40
0.12500000000000314
210
0
220
0
230
1
100
AcDbArc
50
-134.99999999999986
51
44.99999999999784
0
LINE
5
126
100
AcDbEntity
8
0
100
AcDbLine
10
-50.816776695296646
20
-1.4999999999999931
30
0
11
-51.183223304703361
21
-1.4999999999999942
31
0
0
ARC
5
127
100
AcDbEntity
8
0
100
AcDbCircle
10
-51.27161165235168
20
-1.411611652351674
30
0
40
0.12499999999999808
210
0
220
0
230
1
100
AcDbArc
50
135.00000000000449
51
314.99999999999966
0
LINE
5
128
100
AcDbEntity
8
0
100
AcDbLine
10
-51.360000000000007
20
-1.3232233047033615
30
0
11
-51.360000000000007
21
5.5948246910244104e-15
31
0
0
LINE
5
129
100
AcDbEntity
8
0
100
AcDbLine
10
-51.360000000000007
20
5.5948246910244104e-15
30
0
11
-55.823223304703355
21
5.6569990678806664e-15
31
0
0
ARC
5
130
100
AcDbEntity
8
0
100
AcDbCircle
10
-55.911611652351674
20
0.088388347648326412
30
0
40
0.12499999999999804
210
0
220
0
230
1
100
AcDbArc
50
135.00000000000455
51
314.99999999999949
0
LINE
5
131
100
AcDbEntity
8
0
100
AcDbLine
10
-56
20
0.17677669529663878
30
0
11
-56
21
0.72000000000000564
31
0
0
LINE
5
132
100
AcDbEntity
8
0
100
AcDbLine
10
-56
20
0.72000000000000564
30
0
11
-62
21
0.72000000000000564
31
0
0
LINE
5
133
100
AcDbEntity
8
0
100
AcDbLine
10
-62
20
0.72000000000000564
30
0
11
-62
21
0.17677669529663967
31
0
0
ARC
5
134
100
AcDbEntity
8
0
100
AcDbCircle
10
-62.088388347648326
20
0.088388347648327037
30
0
40
0.12500000000000308
210
0
220
0
230
1
100
AcDbArc
50
-134.99999999999991
51
44.99999999999558
0
LINE
5
135
100
AcDbEntity
8
0
100
AcDbLine
10
-62.176776695296645
20
7.5180456785640514e-15
30
0
11
-78
21
5.5948246910244104e-15
31
0
0
LINE
5
136
100
AcDbEntity
8
0
100
AcDbLine
10
-78
20
5.5948246910244104e-15
30
0
11
-78
21
-7.4999999999999911
31
0
0
LINE
5
137
100
AcDbEntity
8
0
100
AcDbLine
10
-78
20
-7.4999999999999911
30
0
11
-77.456776695296639
21
-7.4999999999999911
31
0
0
ARC
5
138
100
AcDbEntity
8
0
100
AcDbCircle
10
-77.36838834764832
20
-7.5883883476483112
30
0
40
0.1249999999999987
210
0
220
0
230
1
100
AcDbArc
50
-44.999999999998273
51
134.99999999999972
0
LINE
5
139
100
AcDbEntity
8
0
100
AcDbLine
10
-77.280000000000001
20
-7.676776695296625
30
0
11
-77.280000000000001
21
-11.323223304703358
31
0
0
ARC
5
140
100
AcDbEntity
8
0
100
AcDbCircle
10
-77.36838834764832
20
-11.411611652351668
30
0
40
0.12500000000000364
210
0
220
0
230
1
100
AcDbArc
50
-134.99999999999943
51
44.999999999997115
0
LINE
5
141
100
AcDbEntity
8
0
100
AcDbLine
10
-77.456776695296639
20
-11.499999999999989
30
0
11
-78
21
-11.499999999999991
31
0
0
LINE
5
142
100
AcDbEntity
8
0
100
AcDbLine
10
-78
20
-11.499999999999991
30
0
11
-78
21
-27.499999999999989
31
0
0
LINE
5
143
100
AcDbEntity
8
0
100
AcDbLine
10
-78
20
-27.499999999999989
30
0
11
-77.456776695296639
21
-27.499999999999989
31
0
0
ARC
5
144
100
AcDbEntity
8
0
100
AcDbCircle
10
-77.36838834764832
20
-27.588388347648312
30
0
40
0.12499999999999674
210
0
220
0
230
1
100
AcDbArc
50
-44.99999999999654
51
134.99999999999886
0
LINE
5
145
100
AcDbEntity
8
0
100
AcDbLine
10
-77.280000000000001
20
-27.676776695296621
30
0
11
-77.280000000000001
21
-31.323223304703355
31
0
0
ARC
5
146
100
AcDbEntity
8
0
100
AcDbCircle
10
-77.36838834764832
20
-31.411611652351667
30
0
40
0.12500000000000464
210
0
220
0
230
1
100
AcDbArc
50
-134.99999999999886
51
44.999999999997691
0
LINE
5
147
100
AcDbEntity
8
0
100
AcDbLine
10
-77.456776695296639
20
-31.499999999999989
30
0
11
-78
21
-31.499999999999989
31
0
0
LINE
5
148
100
AcDbEntity
8
0
100
AcDbLine
10
-78
20
-31.499999999999989
30
0
11
-78
21
-36.779999999999987
31
0
0
LINE
5
149
100
AcDbEntity
8
0
100
AcDbLine
10
-78
20
-36.779999999999987
30
0
11
-74
21
-36.779999999999987
31
0
0
LINE
5
150
100
AcDbEntity
8
0
100
AcDbLine
10
-74
20
-36.779999999999987
30
0
11
-74
21
-9.9999999999999893
31
0
0
ARC
5
151
100
AcDbEntity
8
0
100
AcDbCircle
10
-70
20
-9.9999999999999876
30
0
40
3.9999999999999991
210
0
220
-0
230
1
100
AcDbArc
50
90
51
180
0
LINE
5
152
100
AcDbEntity
8
0
100
AcDbLine
10
-70
20
-5.9999999999999885
30
0
11
-25.499999999999996
21
-5.999999999999992
31
0
0
ARC
5
153
100
AcDbEntity
8
0
100
AcDbCircle
10
-25.499999999999996
20
-7.4999999999999911
30
0
40
1.5000000000000007
210
-0
220
0
230
1
100
AcDbArc
50
0
51
90
0
LINE
5
154
100
AcDbEntity
8
0
100
AcDbLine
10
-23.999999999999996
20
-7.4999999999999964
30
0
11
-23.456776695296636
21
-7.4999999999999964
31
0
0
ARC
5
155
100
AcDbEntity
8
0
100
AcDbCircle
10
-23.368388347648317
20
-7.5883883476483147
30
0
40
0.12500000000000069
210
-0
220
0
230
1
100
AcDbArc
50
-44.999999999999694
51
135.00000000000031
0
LINE
5
156
100
AcDbEntity
8
0
100
AcDbLine
10
-23.279999999999998
20
-7.676776695296633
30
0
11
-23.279999999999998
21
-11.32322330470336
31
0
0
ARC
5
157
100
AcDbEntity
8
0
100
AcDbCircle
10
-23.368388347648317
20
-11.411611652351677
30
0
40
0.12500000000000069
210
0
220
0
230
1
100
AcDbArc
50
-135
51
44.999999999999424
0
LINE
5
158
100
AcDbEntity
8
0
100
AcDbLine
10
-23.456776695296636
20
-11.499999999999996
30
0
11
-24
21
-11.499999999999996
31
0
0
LINE
5
159
100
AcDbEntity
8
0
100
AcDbLine
10
-24
20
-11.499999999999996
30
0
11
-24
21
-27.499999999999996
31
0
0
LINE
5
160
100
AcDbEntity
8
0
100
AcDbLine
10
-24
20
-27.499999999999996
30
0
11
-23.456776695296639
21
-27.499999999999996
31
0
0
ARC
5
161
100
AcDbEntity
8
0
100
AcDbCircle
10
-23.368388347648317
20
-27.588388347648305
30
0
40
0.12500000000000464
210
0
220
0
230
1
100
AcDbArc
50
-45
51
135.00000000000463
0
LINE
5
162
100
AcDbEntity
8
0
100
AcDbLine
10
-23.279999999999994
20
-27.676776695296628
30
0
11
-23.279999999999998
21
-31.323223304703362
31
0
0
ARC
5
163
100
AcDbEntity
8
0
100
AcDbCircle
10
-23.368388347648313
20
-31.411611652351684
30
0
40
0.12499999999999674
210
0
220
0
230
1
100
AcDbArc
50
-135.00000000000463
51
45.000000000002302
0
LINE
5
164
100
AcDbEntity
8
0
100
AcDbLine
10
-23.456776695296636
20
-31.499999999999993
30
0
11
-24
21
-31.499999999999993
31
0
0
LINE
5
165
100
AcDbEntity
8
0
100
AcDbLine
10
-24
20
-31.499999999999993
30
0
11
-24
21
-36.779999999999994
31
0
0
LINE
5
166
100
AcDbEntity
8
0
100
AcDbLine
10
-24
20
-36.779999999999994
30
0
11
0
21
-36.779999999999994
31
0
0
LINE
5
167
100
AcDbEntity
8
0
100
AcDbLine
10
0
20
-36.779999999999994
30
0
11
0
21
-31.499999999999993
31
0
0
LINE
5
168
100
AcDbEntity
8
0
100
AcDbLine
10
0
20
-31.499999999999993
30
0
11
-0.54322330470336078
21
-31.499999999999993
31
0
0
ARC
5
169
100
AcDbEntity
8
0
100
AcDbCircle
10
-0.63161165235168215
20
-31.411611652351684
30
0
40
0.12500000000000272
210
0
220
0
230
1
100
AcDbArc
50
134.99999999999883
51
315.00000000000421
0
LINE
5
170
100
AcDbEntity
8
0
100
AcDbLine
10
-0.72000000000000119
20
-31.323223304703362
30
0
11
-0.71999999999999997
21
-27.676776695296628
31
0
0
ARC
5
171
100
AcDbEntity
8
0
100
AcDbCircle
10
-0.6316116523516816
20
-27.588388347648305
30
0
40
0.1249999999999966
210
0
220
-0
230
1
100
AcDbArc
50
44.999999999995786
51
225.00000000000142
0
LINE
5
172
100
AcDbEntity
8
0
100
AcDbLine
10
-0.54322330470336011
20
-27.499999999999996
30
0
11
0
21
-27.499999999999996
31
0
0
LINE
5
173
100
AcDbEntity
8
0
100
AcDbLine
10
0
20
-27.499999999999996
30
0
11
0
21
-11.5
31
0
0
LINE
5
174
100
AcDbEntity
8
0
100
AcDbLine
10
0
20
-11.5
30
0
11
-0.54322330470336355
21
-11.5
31
0
0
ARC
5
175
100
AcDbEntity
8
0
100
AcDbCircle
10
-0.63161165235168126
20
-11.411611652351681
30
0
40
0.12500000000000031
210
0
220
0
230
1
100
AcDbArc
50
134.99999999999974
51
314.99999999999955
0
LINE
5
176
100
AcDbEntity
8
0
100
AcDbLine
10
-0.71999999999999964
20
-11.323223304703362
30
0
11
-0.71999999999999997
21
-7.6767766952966374
31
0
0
ARC
5
177
100
AcDbEntity
8
0
100
AcDbCircle
10
-0.63161165235168126
20
-7.58838834764832
30
0
40
0.1250000000000008
210
0
220
-0
230
1
100
AcDbArc
50
45.000000000000753
51
224.99999999999957
0
LINE
5
178
100
AcDbEntity
8
0
100
AcDbLine
10
-0.54322330470336355
20
-7.5
30
0
11
-8.7419135797256413e-17
21
-7.5
31
0
0
LINE
5
179
100
AcDbEntity
8
0
100
AcDbLine
10
-8.7419135797256413e-17
20
-7.5
30
0
11
0
21
0
31
0
0
LINE
5
180
100
AcDbEntity
8
0
100
AcDbLine
10
0
20
0
30
0
11
-15.823223304703362
21
1.8473541917370807e-16
31
0
0
ARC
5
181
100
AcDbEntity
8
0
100
AcDbCircle
10
-15.911611652351679
20
0.088388347648318516
30
0
40
0.12500000000000025
210
0
220
0
230
1
100
AcDbArc
50
135.00000000000028
51
314.99999999999972
0
LINE
5
182
100
AcDbEntity
8
0
100
AcDbLine
10
-15.999999999999998
20
0.17677669529663684
30
0
11
-15.999999999999998
21
0.72000000000000008
31
0
0
LINE
5
183
100
AcDbEntity
8
0
100
AcDbLine
10
-15.999999999999998
20
0.72000000000000008
30
0
11
-21.999999999999996
21
0.72000000000000008
31
0
0
LINE
5
184
100
AcDbEntity
8
0
100
AcDbLine
10
-21.999999999999996
20
0.72000000000000008
30
0
11
-21.999999999999996
21
0.17677669529663706
31
0
0
ARC
5
185
100
AcDbEntity
8
0
100
AcDbCircle
10
-22.088388347648316
20
0.088388347648318655
30
0
40
0.125
210
0
220
0
230
1
100
AcDbArc
50
-135.00000000000037
51
44.999999999999751
0
LINE
5
186
100
AcDbEntity
8
0
100
AcDbLine
10
-22.176776695296635
20
6.6657091045408011e-16
30
0
11
-50.640000000000001
21
5.5948246910244104e-15
31
0
0
LINE
5
187
100
AcDbEntity
8
0
100
AcDbLine
10
-50.640000000000001
20
5.5948246910244104e-15
30
0
11
-50.640000000000001
21
-1.3232233047033539
31
0
0
ENDSEC
0
SECTION
2
OBJECTS
0
DICTIONARY
5
C
100
AcDbDictionary
3
ACAD_GROUP
350
D
3
ACAD_MLINESTYLE
350
17
0
DICTIONARY
5
D
100
AcDbDictionary
0
DICTIONARY
5
1A
330
C
100
AcDbDictionary
0
DICTIONARY
5
17
100
AcDbDictionary
0
ENDSEC
0
EOF
