0
SECTION
2
HEADER
9
$INSUNITS
70
1
9
$ACADVER
1
AC1014
9
$HANDSEED
5
FFFF
0
ENDSEC
0
SECTION
2
TABLES
0
TABLE
2
VPORT
5
8
100
AcDbSymbolTable
0
ENDTAB
0
TABLE
2
LTYPE
5
5
100
AcDbSymbolTable
0
LTYPE
5
14
100
AcDbSymbolTableRecord
100
AcDbLinetypeTableRecord
2
BYBLOCK
70
0
0
LTYPE
5
15
100
AcDbSymbolTableRecord
100
AcDbLinetypeTableRecord
2
BYLAYER
70
0
0
ENDTAB
0
TABLE
2
LAYER
5
2
100
AcDbSymbolTable
70
2
0
LAYER
5
50
100
AcDbSymbolTableRecord
100
AcDbLayerTableRecord
2
0
70
0
6
CONTINUOUS
0
ENDTAB
0
TABLE
2
STYLE
5
3
100
AcDbSymbolTable
70
1
0
STYLE
5
11
100
AcDbSymbolTableRecord
100
AcDbTextStyleTableRecord
2
STANDARD
70
0
0
ENDTAB
0
TABLE
2
VIEW
5
6
100
AcDbSymbolTable
70
0
0
ENDTAB
0
TABLE
2
UCS
5
7
100
AcDbSymbolTable
70
0
0
ENDTAB
0
TABLE
2
APPID
5
9
100
AcDbSymbolTable
70
2
0
APPID
5
12
100
AcDbSymbolTableRecord
100
AcDbRegAppTableRecord
2
ACAD
70
0
0
ENDTAB
0
TABLE
2
DIMSTYLE
5
A
100
AcDbSymbolTable
70
1
0
ENDTAB
0
TABLE
2
BLOCK_RECORD
5
1
100
AcDbSymbolTable
70
1
0
BLOCK_RECORD
5
1F
100
AcDbSymbolTableRecord
100
AcDbBlockTableRecord
2
*MODEL_SPACE
0
BLOCK_RECORD
5
1B
100
AcDbSymbolTableRecord
100
AcDbBlockTableRecord
2
*PAPER_SPACE
0
ENDTAB
0
ENDSEC
0
SECTION
2
BLOCKS
0
BLOCK
5
20
100
AcDbEntity
100
AcDbBlockBegin
2
*MODEL_SPACE
0
ENDBLK
5
21
100
AcDbEntity
100
AcDbBlockEnd
0
BLOCK
5
1C
100
AcDbEntity
100
AcDbBlockBegin
2
*PAPER_SPACE
0
ENDBLK
5
1D
100
AcDbEntity
100
AcDbBlockEnd
0
ENDSEC
0
SECTION
2
ENTITIES
0
LWPOLYLINE
5
100
100
AcDbEntity
8
0
100
AcDbPolyline
90
8
70
1
43
0.0
10
-26.823223304703347
20
-35.439999999999969
42
-0.99999999999999989
10
-26.999999999999979
20
-35.263223304703324
10
-26.999999999999993
20
-34.896776695296602
42
-0.99999999999999989
10
-26.823223304703347
20
-34.719999999999956
10
-23.176776695296624
20
-34.719999999999963
42
-0.99999999999999989
10
-22.999999999999975
20
-34.896776695296595
10
-22.999999999999975
20
-35.263223304703338
42
-0.99999999999999989
10
-23.176776695296624
20
-35.439999999999955
0
ARC
5
101
100
AcDbEntity
8
0
100
AcDbCircle
10
-3.808388347648322
20
-24.808388347648304
30
0
40
0.12499999999999971
210
-0
220
0
230
1
100
AcDbArc
50
-45.000000000000561
51
134.99999999999957
0
LINE
5
102
100
AcDbEntity
8
0
100
AcDbLine
10
-3.7200000000000046
20
-24.896776695296623
30
0
11
-3.7200000000000046
21
-25.263223304703359
31
0
0
ARC
5
103
100
AcDbEntity
8
0
100
AcDbCircle
10
-3.8083883476483238
20
-25.351611652351679
30
0
40
0.12499999999999623
210
0
220
0
230
1
100
AcDbArc
50
-135.00000000000287
51
45
0
LINE
5
104
100
AcDbEntity
8
0
100
AcDbLine
10
-3.8967766952966447
20
-25.439999999999991
30
0
11
-7.5432233047033668
21
-25.439999999999991
31
0
0
ARC
5
105
100
AcDbEntity
8
0
100
AcDbCircle
10
-7.6316116523516868
20
-25.351611652351668
30
0
40
0.12499999999999674
210
0
220
0
230
1
100
AcDbArc
50
135.00000000000031
51
314.99999999999915
0
LINE
5
106
100
AcDbEntity
8
0
100
AcDbLine
10
-7.7200000000000033
20
-25.263223304703352
30
0
11
-7.7200000000000042
21
-24.896776695296623
31
0
0
ARC
5
107
100
AcDbEntity
8
0
100
AcDbCircle
10
-7.6316116523516868
20
-24.808388347648304
30
0
40
0.12499999999999971
210
0
220
-0
230
1
100
AcDbArc
50
45.000000000000568
51
225.00000000000057
0
LINE
5
108
100
AcDbEntity
8
0
100
AcDbLine
10
-7.5432233047033694
20
-24.719999999999985
30
0
11
-3.8967766952966398
21
-24.719999999999985
31
0
0
LWPOLYLINE
5
109
100
AcDbEntity
8
0
100
AcDbPolyline
90
8
70
1
43
0.0
10
-23.176776695296621
20
-24.719999999999963
42
-0.99999999999999989
10
-22.999999999999982
20
-24.896776695296602
10
-22.999999999999982
20
-25.263223304703331
42
-0.99999999999999989
10
-23.176776695296621
20
-25.439999999999962
10
-26.823223304703337
20
-25.439999999999969
42
-0.99999999999999989
10
-26.999999999999979
20
-25.263223304703324
10
-26.999999999999993
20
-24.896776695296602
42
-0.99999999999999989
10
-26.823223304703347
20
-24.71999999999996
0
ARC
5
110
100
AcDbEntity
8
0
100
AcDbCircle
10
-3.8083883476483238
20
-17.448388347648308
30
0
40
0.12500000000000069
210
-0
220
0
230
1
100
AcDbArc
50
-44.999999999998835
51
134.99999999999986
0
LINE
5
111
100
AcDbEntity
8
0
100
AcDbLine
10
-3.7200000000000046
20
-17.536776695296624
30
0
11
-3.7200000000000046
21
-17.903223304703349
31
0
0
ARC
5
112
100
AcDbEntity
8
0
100
AcDbCircle
10
-3.8083883476483229
20
-17.991611652351668
30
0
40
0.12500000000000019
210
0
220
0
230
1
100
AcDbArc
50
-134.99999999999972
51
45.000000000000291
0
LINE
5
113
100
AcDbEntity
8
0
100
AcDbLine
10
-3.8967766952966412
20
-18.079999999999988
30
0
11
-7.5432233047033694
21
-18.079999999999988
31
0
0
ARC
5
114
100
AcDbEntity
8
0
100
AcDbCircle
10
-7.6316116523516868
20
-17.991611652351668
30
0
40
0.12499999999999971
210
0
220
0
230
1
100
AcDbArc
50
134.99999999999943
51
314.99999999999943
0
LINE
5
115
100
AcDbEntity
8
0
100
AcDbLine
10
-7.7200000000000042
20
-17.903223304703349
30
0
11
-7.7200000000000042
21
-17.536776695296624
31
0
0
ARC
5
116
100
AcDbEntity
8
0
100
AcDbCircle
10
-7.6316116523516868
20
-17.448388347648308
30
0
40
0.12499999999999971
210
0
220
-0
230
1
100
AcDbArc
50
45.000000000000568
51
224.99999999999943
0
LINE
5
117
100
AcDbEntity
8
0
100
AcDbLine
10
-7.5432233047033694
20
-17.359999999999989
30
0
11
-3.8967766952966425
21
-17.359999999999989
31
0
0
ARC
5
118
100
AcDbEntity
8
0
100
AcDbCircle
10
-3.8083883476483238
20
-10.088388347648307
30
0
40
0.12500000000000019
210
0
220
0
230
1
100
AcDbArc
50
-44.999999999999289
51
135.00000000000074
0
LINE
5
119
100
AcDbEntity
8
0
100
AcDbLine
10
-3.7200000000000042
20
-10.176776695296624
30
0
11
-3.7200000000000046
21
-10.543223304703352
31
0
0
ARC
5
120
100
AcDbEntity
8
0
100
AcDbCircle
10
-3.8083883476483238
20
-10.631611652351669
30
0
40
0.12499999999999971
210
0
220
0
230
1
100
AcDbArc
50
-134.99999999999943
51
44.999999999999424
0
LINE
5
121
100
AcDbEntity
8
0
100
AcDbLine
10
-3.8967766952966412
20
-10.719999999999988
30
0
11
-7.5432233047033694
21
-10.719999999999988
31
0
0
ARC
5
122
100
AcDbEntity
8
0
100
AcDbCircle
10
-7.6316116523516868
20
-10.631611652351669
30
0
40
0.12499999999999971
210
0
220
0
230
1
100
AcDbArc
50
134.99999999999943
51
314.99999999999943
0
LINE
5
123
100
AcDbEntity
8
0
100
AcDbLine
10
-7.7200000000000042
20
-10.54322330470335
30
0
11
-7.7200000000000042
21
-10.176776695296626
31
0
0
ARC
5
124
100
AcDbEntity
8
0
100
AcDbCircle
10
-7.6316116523516868
20
-10.088388347648305
30
0
40
0.1249999999999987
210
0
220
-0
230
1
100
AcDbArc
50
45
51
225.00000000000117
0
LINE
5
125
100
AcDbEntity
8
0
100
AcDbLine
10
-7.5432233047033694
20
-9.9999999999999876
30
0
11
-3.8967766952966434
21
-9.9999999999999893
31
0
0
LWPOLYLINE
5
126
100
AcDbEntity
8
0
100
AcDbPolyline
90
8
70
1
43
0.0
10
-23.176776695296621
20
-17.359999999999964
42
-0.99999999999999989
10
-22.999999999999982
20
-17.536776695296599
10
-22.999999999999982
20
-17.903223304703324
42
-0.99999999999999989
10
-23.176776695296621
20
-18.079999999999963
10
-26.823223304703358
20
-18.079999999999963
42
-0.99999999999999989
10
-26.999999999999979
20
-17.903223304703324
10
-26.999999999999993
20
-17.536776695296602
42
-0.99999999999999989
10
-26.823223304703347
20
-17.35999999999996
0
ARC
5
127
100
AcDbEntity
8
0
100
AcDbCircle
10
-23.088388347648301
20
-10.088388347648278
30
0
40
0.12500000000000069
210
-0
220
0
230
1
100
AcDbArc
50
-45
51
135
0
LINE
5
128
100
AcDbEntity
8
0
100
AcDbLine
10
-22.999999999999982
20
-10.176776695296597
30
0
11
-22.999999999999982
21
-10.543223304703327
31
0
0
ARC
5
129
100
AcDbEntity
8
0
100
AcDbCircle
10
-23.088388347648301
20
-10.631611652351644
30
0
40
0.12499999999999971
210
0
220
0
230
1
100
AcDbArc
50
-135.0000000000006
51
44.999999999999424
0
LINE
5
130
100
AcDbEntity
8
0
100
AcDbLine
10
-23.176776695296621
20
-10.719999999999962
30
0
11
-26.823223304703347
21
-10.719999999999962
31
0
0
ARC
5
131
100
AcDbEntity
8
0
100
AcDbCircle
10
-26.91161165235167
20
-10.631611652351642
30
0
40
0.12499999999999674
210
0
220
0
230
1
100
AcDbArc
50
134.99999999999542
51
315.00000000000119
0
LINE
5
132
100
AcDbEntity
8
0
100
AcDbLine
10
-26.999999999999979
20
-10.54322330470332
30
0
11
-26.999999999999979
21
-10.176776695296599
31
0
0
ARC
5
133
100
AcDbEntity
8
0
100
AcDbCircle
10
-26.91161165235167
20
-10.088388347648278
30
0
40
0.12500000000000266
210
0
220
-0
230
1
100
AcDbArc
50
44.999999999998849
51
225.00000000000401
0
LINE
5
134
100
AcDbEntity
8
0
100
AcDbLine
10
-26.823223304703347
20
-9.9999999999999591
30
0
11
-23.176776695296621
21
-9.9999999999999591
31
0
0
LWPOLYLINE
5
135
100
AcDbEntity
8
0
100
AcDbPolyline
90
19
70
1
43
0.0
10
-0.72000000000006537
20
-31.676776695296613
42
-0.99999999999999989
10
-0.54322330470342228
20
-31.499999999999993
10
-6.1543071601268512e-14
20
-31.499999999999993
10
-6.1543071601268512e-14
20
-27.499999999999996
10
-0.54322330470342184
20
-27.499999999999989
42
-0.99999999999999989
10
-0.72000000000006248
20
-27.323223304703358
10
-0.72000000000000008
20
-11.676776695296635
42
-0.99999999999999989
10
-0.54322330470336455
20
-11.499999999999996
10
0
20
-11.5
10
0
20
-7.5
10
-0.54322330470336389
20
-7.5000000000000009
42
-0.99999999999999989
10
-0.71999999999999931
20
-7.3232233047033608
10
-0.7199999999999892
20
0
10
-29.27999999999998
20
3.6366360491658669e-14
10
-29.279999999999987
20
-2.8232233047033257
42
-0.99999999999999989
10
-29.456776695296618
20
-2.9999999999999605
10
-29.999999999999982
20
-2.9999999999999623
10
-30.000000000000053
20
-36.779999999999937
10
-0.72000000000006192
20
-36.779999999999994
0
ARC
5
136
100
AcDbEntity
8
0
100
AcDbCircle
10
-7.6316116523516868
20
-35.351611652351671
30
0
40
0.12500000000000266
210
0
220
0
230
1
100
AcDbArc
50
134.99999999999773
51
315
0
LINE
5
137
100
AcDbEntity
8
0
100
AcDbLine
10
-7.720000000000006
20
-35.263223304703345
30
0
11
-7.720000000000006
21
-34.896776695296616
31
0
0
ARC
5
138
100
AcDbEntity
8
0
100
AcDbCircle
10
-7.6316116523516868
20
-34.80838834764829
30
0
40
0.12499999999999674
210
0
220
-0
230
1
100
AcDbArc
50
44.999999999996838
51
225.00000000000227
0
LINE
5
139
100
AcDbEntity
8
0
100
AcDbLine
10
-7.543223304703365
20
-34.719999999999978
30
0
11
-3.8967766952966461
21
-34.719999999999978
31
0
0
ARC
5
140
100
AcDbEntity
8
0
100
AcDbCircle
10
-3.8083883476483251
20
-34.80838834764829
30
0
40
0.12500000000000314
210
0
220
0
230
1
100
AcDbArc
50
-45.000000000002139
51
135.00000000000287
0
LINE
5
141
100
AcDbEntity
8
0
100
AcDbLine
10
-3.7200000000000055
20
-34.896776695296616
30
0
11
-3.7200000000000073
21
-35.263223304703345
31
0
0
ARC
5
142
100
AcDbEntity
8
0
100
AcDbCircle
10
-3.8083883476483251
20
-35.351611652351657
30
0
40
0.12500000000000314
210
0
220
0
230
1
100
AcDbArc
50
-134.99999999999787
51
44.999999999998131
0
LINE
5
143
100
AcDbEntity
8
0
100
AcDbLine
10
-3.8967766952966447
20
-35.439999999999984
30
0
11
-7.5432233047033677
21
-35.439999999999991
31
0
0
ENDSEC
0
SECTION
2
OBJECTS
0
DICTIONARY
5
C
100
AcDbDictionary
3
ACAD_GROUP
350
D
3
ACAD_MLINESTYLE
350
17
0
DICTIONARY
5
D
100
AcDbDictionary
0
DICTIONARY
5
1A
330
C
100
AcDbDictionary
0
DICTIONARY
5
17
100
AcDbDictionary
0
ENDSEC
0
EOF
