0
SECTION
2
HEADER
9
$INSUNITS
70
1
9
$ACADVER
1
AC1014
9
$HANDSEED
5
FFFF
0
ENDSEC
0
SECTION
2
TABLES
0
TABLE
2
VPORT
5
8
100
AcDbSymbolTable
0
ENDTAB
0
TABLE
2
LTYPE
5
5
100
AcDbSymbolTable
0
LTYPE
5
14
100
AcDbSymbolTableRecord
100
AcDbLinetypeTableRecord
2
BYBLOCK
70
0
0
LTYPE
5
15
100
AcDbSymbolTableRecord
100
AcDbLinetypeTableRecord
2
BYLAYER
70
0
0
ENDTAB
0
TABLE
2
LAYER
5
2
100
AcDbSymbolTable
70
2
0
LAYER
5
50
100
AcDbSymbolTableRecord
100
AcDbLayerTableRecord
2
0
70
0
6
CONTINUOUS
0
ENDTAB
0
TABLE
2
STYLE
5
3
100
AcDbSymbolTable
70
1
0
STYLE
5
11
100
AcDbSymbolTableRecord
100
AcDbTextStyleTableRecord
2
STANDARD
70
0
0
ENDTAB
0
TABLE
2
VIEW
5
6
100
AcDbSymbolTable
70
0
0
ENDTAB
0
TABLE
2
UCS
5
7
100
AcDbSymbolTable
70
0
0
ENDTAB
0
TABLE
2
APPID
5
9
100
AcDbSymbolTable
70
2
0
APPID
5
12
100
AcDbSymbolTableRecord
100
AcDbRegAppTableRecord
2
ACAD
70
0
0
ENDTAB
0
TABLE
2
DIMSTYLE
5
A
100
AcDbSymbolTable
70
1
0
ENDTAB
0
TABLE
2
BLOCK_RECORD
5
1
100
AcDbSymbolTable
70
1
0
BLOCK_RECORD
5
1F
100
AcDbSymbolTableRecord
100
AcDbBlockTableRecord
2
*MODEL_SPACE
0
BLOCK_RECORD
5
1B
100
AcDbSymbolTableRecord
100
AcDbBlockTableRecord
2
*PAPER_SPACE
0
ENDTAB
0
ENDSEC
0
SECTION
2
BLOCKS
0
BLOCK
5
20
100
AcDbEntity
100
AcDbBlockBegin
2
*MODEL_SPACE
0
ENDBLK
5
21
100
AcDbEntity
100
AcDbBlockEnd
0
BLOCK
5
1C
100
AcDbEntity
100
AcDbBlockBegin
2
*PAPER_SPACE
0
ENDBLK
5
1D
100
AcDbEntity
100
AcDbBlockEnd
0
ENDSEC
0
SECTION
2
ENTITIES
0
LWPOLYLINE
5
100
100
AcDbEntity
8
0
100
AcDbPolyline
90
8
70
1
43
0.0
10
26.823223304703347
20
-34.719999999999949
42
-0.99999999999999989
10
26.999999999999979
20
-34.896776695296587
10
26.999999999999993
20
-35.263223304703317
42
-0.99999999999999989
10
26.823223304703347
20
-35.439999999999955
10
23.176776695296631
20
-35.439999999999955
42
-0.99999999999999989
10
22.999999999999982
20
-35.263223304703324
10
22.999999999999979
20
-34.89677669529658
42
-0.99999999999999989
10
23.176776695296628
20
-34.719999999999956
0
LWPOLYLINE
5
101
100
AcDbEntity
8
0
100
AcDbPolyline
90
8
70
1
43
0.0
10
22.999999999999982
20
-24.896776695296602
42
-0.99999999999999989
10
23.176776695296621
20
-24.719999999999963
10
26.823223304703358
20
-24.719999999999963
42
-0.99999999999999989
10
26.999999999999979
20
-24.896776695296602
10
26.999999999999975
20
-25.263223304703331
42
-0.99999999999999989
10
26.823223304703344
20
-25.439999999999962
10
23.176776695296624
20
-25.439999999999952
42
-0.99999999999999989
10
22.999999999999979
20
-25.263223304703331
0
LWPOLYLINE
5
102
100
AcDbEntity
8
0
100
AcDbPolyline
90
8
70
1
43
0.0
10
22.999999999999982
20
-17.536776695296599
42
-0.99999999999999989
10
23.176776695296621
20
-17.359999999999964
10
26.823223304703358
20
-17.359999999999964
42
-0.99999999999999989
10
26.999999999999979
20
-17.536776695296599
10
26.999999999999993
20
-17.903223304703321
42
-0.99999999999999989
10
26.823223304703347
20
-18.079999999999966
10
23.176776695296621
20
-18.079999999999963
42
-0.99999999999999989
10
22.999999999999982
20
-17.903223304703324
0
ARC
5
103
100
AcDbEntity
8
0
100
AcDbCircle
10
23.088388347648301
20
-10.088388347648278
30
0
40
0.12499999999999971
210
0
220
-0
230
1
100
AcDbArc
50
44.999999999999424
51
224.99999999999943
0
LINE
5
104
100
AcDbEntity
8
0
100
AcDbLine
10
23.176776695296621
20
-9.9999999999999609
30
0
11
26.823223304703347
21
-9.9999999999999609
31
0
0
ARC
5
105
100
AcDbEntity
8
0
100
AcDbCircle
10
26.91161165235167
20
-10.08838834764828
30
0
40
0.12499999999999674
210
-0
220
0
230
1
100
AcDbArc
50
-45.000000000004015
51
135.00000000000117
0
LINE
5
106
100
AcDbEntity
8
0
100
AcDbLine
10
26.999999999999979
20
-10.176776695296601
30
0
11
26.999999999999979
21
-10.543223304703321
31
0
0
ARC
5
107
100
AcDbEntity
8
0
100
AcDbCircle
10
26.91161165235167
20
-10.631611652351644
30
0
40
0.12500000000000266
210
0
220
0
230
1
100
AcDbArc
50
-135.00000000000117
51
45.000000000004604
0
LINE
5
108
100
AcDbEntity
8
0
100
AcDbLine
10
26.823223304703347
20
-10.719999999999963
30
0
11
23.176776695296621
21
-10.719999999999962
31
0
0
ARC
5
109
100
AcDbEntity
8
0
100
AcDbCircle
10
23.088388347648301
20
-10.631611652351644
30
0
40
0.12500000000000069
210
0
220
0
230
1
100
AcDbArc
50
135
51
315.00000000000057
0
LINE
5
110
100
AcDbEntity
8
0
100
AcDbLine
10
22.999999999999982
20
-10.543223304703325
30
0
11
22.999999999999982
21
-10.176776695296596
31
0
0
ARC
5
111
100
AcDbEntity
8
0
100
AcDbCircle
10
3.8083883476483229
20
-24.808388347648304
30
0
40
0.12500000000000019
210
0
220
-0
230
1
100
AcDbArc
50
45.000000000000291
51
225.00000000000028
0
LINE
5
112
100
AcDbEntity
8
0
100
AcDbLine
10
3.8967766952966412
20
-24.719999999999985
30
0
11
7.5432233047033694
21
-24.719999999999985
31
0
0
ARC
5
113
100
AcDbEntity
8
0
100
AcDbCircle
10
7.6316116523516868
20
-24.808388347648304
30
0
40
0.12499999999999971
210
-0
220
0
230
1
100
AcDbArc
50
-45.000000000000561
51
134.99999999999943
0
LINE
5
114
100
AcDbEntity
8
0
100
AcDbLine
10
7.7200000000000042
20
-24.896776695296623
30
0
11
7.7200000000000042
21
-25.263223304703352
31
0
0
ARC
5
115
100
AcDbEntity
8
0
100
AcDbCircle
10
7.6316116523516868
20
-25.351611652351668
30
0
40
0.12500000000000266
210
0
220
0
230
1
100
AcDbArc
50
-134.99999999999886
51
44.999999999999424
0
LINE
5
116
100
AcDbEntity
8
0
100
AcDbLine
10
7.5432233047033677
20
-25.439999999999991
30
0
11
3.8967766952966438
21
-25.439999999999991
31
0
0
ARC
5
117
100
AcDbEntity
8
0
100
AcDbCircle
10
3.808388347648322
20
-25.351611652351679
30
0
40
0.12500000000000266
210
0
220
0
230
1
100
AcDbArc
50
134.99999999999986
51
315.00000000000318
0
LINE
5
118
100
AcDbEntity
8
0
100
AcDbLine
10
3.7200000000000033
20
-25.263223304703359
30
0
11
3.7200000000000046
21
-24.896776695296623
31
0
0
ARC
5
119
100
AcDbEntity
8
0
100
AcDbCircle
10
3.8083883476483229
20
-17.448388347648308
30
0
40
0.12500000000000019
210
0
220
-0
230
1
100
AcDbArc
50
45.000000000000291
51
224.99999999999912
0
LINE
5
120
100
AcDbEntity
8
0
100
AcDbLine
10
3.8967766952966412
20
-17.359999999999989
30
0
11
7.5432233047033694
21
-17.359999999999989
31
0
0
ARC
5
121
100
AcDbEntity
8
0
100
AcDbCircle
10
7.6316116523516868
20
-17.448388347648308
30
0
40
0.12499999999999971
210
-0
220
0
230
1
100
AcDbArc
50
-44.999999999999439
51
134.99999999999943
0
LINE
5
122
100
AcDbEntity
8
0
100
AcDbLine
10
7.7200000000000042
20
-17.536776695296624
30
0
11
7.7200000000000042
21
-17.903223304703349
31
0
0
ARC
5
123
100
AcDbEntity
8
0
100
AcDbCircle
10
7.6316116523516868
20
-17.991611652351668
30
0
40
0.12499999999999971
210
0
220
0
230
1
100
AcDbArc
50
-134.99999999999943
51
45.000000000000568
0
LINE
5
124
100
AcDbEntity
8
0
100
AcDbLine
10
7.5432233047033694
20
-18.079999999999988
30
0
11
3.8967766952966421
21
-18.079999999999988
31
0
0
ARC
5
125
100
AcDbEntity
8
0
100
AcDbCircle
10
3.8083883476483238
20
-17.991611652351668
30
0
40
0.12500000000000069
210
0
220
0
230
1
100
AcDbArc
50
135
51
314.99999999999972
0
LINE
5
126
100
AcDbEntity
8
0
100
AcDbLine
10
3.7200000000000046
20
-17.903223304703349
30
0
11
3.7200000000000046
21
-17.536776695296624
31
0
0
ARC
5
127
100
AcDbEntity
8
0
100
AcDbCircle
10
3.8083883476483238
20
-10.088388347648307
30
0
40
0.12499999999999971
210
0
220
-0
230
1
100
AcDbArc
50
45.000000000000568
51
224.99999879258158
0
LINE
5
128
100
AcDbEntity
8
0
100
AcDbLine
10
3.8967766952966412
20
-9.9999999999999876
30
0
11
7.5432233047033694
21
-9.9999999999999876
31
0
0
ARC
5
129
100
AcDbEntity
8
0
100
AcDbCircle
10
7.6316116523516868
20
-10.088388347648307
30
0
40
0.12499999999999971
210
-0
220
0
230
1
100
AcDbArc
50
-45.000000000000561
51
134.99999999999943
0
LINE
5
130
100
AcDbEntity
8
0
100
AcDbLine
10
7.7200000000000042
20
-10.176776695296626
30
0
11
7.7200000000000042
21
-10.54322330470335
31
0
0
ARC
5
131
100
AcDbEntity
8
0
100
AcDbCircle
10
7.6316116523516868
20
-10.631611652351671
30
0
40
0.1249999999999987
210
0
220
0
230
1
100
AcDbArc
50
-135
51
45.000000000001151
0
LINE
5
132
100
AcDbEntity
8
0
100
AcDbLine
10
7.5432233047033694
20
-10.719999999999988
30
0
11
3.8967766952966421
21
-10.719999999999988
31
0
0
ARC
5
133
100
AcDbEntity
8
0
100
AcDbCircle
10
3.8083883476483238
20
-10.631611652351669
30
0
40
0.12500000000000019
210
0
220
0
230
1
100
AcDbArc
50
135.00000000000074
51
314.99999999999972
0
LINE
5
134
100
AcDbEntity
8
0
100
AcDbLine
10
3.7200000000000042
20
-10.543223304703352
30
0
11
3.7199999981373608
21
-10.176776693433979
31
0
0
ARC
5
135
100
AcDbEntity
8
0
100
AcDbCircle
10
0.63161165235174399
20
-31.588388347648305
30
0
40
0.12500000000000272
210
0
220
0
230
1
100
AcDbArc
50
-45.000000000001165
51
134.99999999999878
0
LINE
5
136
100
AcDbEntity
8
0
100
AcDbLine
10
0.72000000000006303
20
-31.676776695296628
30
0
11
0.72000000000006203
21
-36.779999999999994
31
0
0
LINE
5
137
100
AcDbEntity
8
0
100
AcDbLine
10
0.72000000000006203
20
-36.779999999999994
30
0
11
30.000000000000053
21
-36.779999999999937
31
0
0
LINE
5
138
100
AcDbEntity
8
0
100
AcDbLine
10
30.000000000000053
20
-36.779999999999937
30
0
11
29.999999999999982
21
-2.9999999999999623
31
0
0
LINE
5
139
100
AcDbEntity
8
0
100
AcDbLine
10
29.999999999999982
20
-2.9999999999999623
30
0
11
29.456776695296618
21
-2.9999999999999618
31
0
0
ARC
5
140
100
AcDbEntity
8
0
100
AcDbCircle
10
29.368388347648303
20
-2.9116116523516435
30
0
40
0.12500000000000314
210
0
220
0
230
1
100
AcDbArc
50
135.00000000000102
51
314.99999999999915
0
LINE
5
141
100
AcDbEntity
8
0
100
AcDbLine
10
29.27999999999998
20
-2.8232233047033239
30
0
11
29.27999999999998
21
3.6366360491658669e-14
31
0
0
LINE
5
142
100
AcDbEntity
8
0
100
AcDbLine
10
29.27999999999998
20
3.6366360491658669e-14
30
0
11
20.176776695296621
21
3.7601155784794913e-14
31
0
0
ARC
5
143
100
AcDbEntity
8
0
100
AcDbCircle
10
20.088388347648301
20
0.088388347648354182
30
0
40
0.12500000000000044
210
0
220
0
230
1
100
AcDbArc
50
135.0000000000002
51
315.0000000000008
0
LINE
5
144
100
AcDbEntity
8
0
100
AcDbLine
10
19.999999999999982
20
0.17677669529667278
30
0
11
19.999999999999982
21
0.72000000000003739
31
0
0
LINE
5
145
100
AcDbEntity
8
0
100
AcDbLine
10
19.999999999999982
20
0.72000000000003739
30
0
11
10.719999999999981
21
0.7200000000000194
31
0
0
LINE
5
146
100
AcDbEntity
8
0
100
AcDbLine
10
10.719999999999981
20
0.7200000000000194
30
0
11
10.719999999999983
21
0.17677669529665602
31
0
0
ARC
5
147
100
AcDbEntity
8
0
100
AcDbCircle
10
10.631611652351664
20
0.088388347648338125
30
0
40
0.12500000000000047
210
0
220
0
230
1
100
AcDbArc
50
-135.00000000000017
51
44.999999999999595
0
LINE
5
148
100
AcDbEntity
8
0
100
AcDbLine
10
10.543223304703345
20
1.9494467282788179e-14
30
0
11
0.71999999999998643
21
0
31
0
0
LINE
5
149
100
AcDbEntity
8
0
100
AcDbLine
10
0.71999999999998643
20
0
30
0
11
0.71999999999999953
21
-7.3232233047033608
31
0
0
ARC
5
150
100
AcDbEntity
8
0
100
AcDbCircle
10
0.63161165235168149
20
-7.4116116523516808
30
0
40
0.12499999999999914
210
0
220
0
230
1
100
AcDbArc
50
-134.99999999999926
51
45.000000000000647
0
LINE
5
151
100
AcDbEntity
8
0
100
AcDbLine
10
0.54322330470336466
20
-7.5
30
0
11
0
21
-7.5
31
0
0
LINE
5
152
100
AcDbEntity
8
0
100
AcDbLine
10
0
20
-7.5
30
0
11
0
21
-11.5
31
0
0
LINE
5
153
100
AcDbEntity
8
0
100
AcDbLine
10
0
20
-11.5
30
0
11
0.54322330470336433
21
-11.499999999999996
31
0
0
ARC
5
154
100
AcDbEntity
8
0
100
AcDbCircle
10
0.6316116523516826
20
-11.588388347648316
30
0
40
0.12500000000000011
210
-0
220
0
230
1
100
AcDbArc
50
-45.000000000000306
51
134.99999999999972
0
LINE
5
155
100
AcDbEntity
8
0
100
AcDbLine
10
0.72000000000000075
20
-11.676776695296635
30
0
11
0.72000000000006137
21
-27.323223304703358
31
0
0
ARC
5
156
100
AcDbEntity
8
0
100
AcDbCircle
10
0.63161165235174177
20
-27.411611652351674
30
0
40
0.12499999999999957
210
0
220
0
230
1
100
AcDbArc
50
-134.99999999999736
51
44.9999999999987
0
LINE
5
157
100
AcDbEntity
8
0
100
AcDbLine
10
0.54322330470342717
20
-27.499999999999996
30
0
11
6.1543071601268512e-14
21
-27.499999999999996
31
0
0
LINE
5
158
100
AcDbEntity
8
0
100
AcDbLine
10
6.1543071601268512e-14
20
-27.499999999999996
30
0
11
6.1543071601268512e-14
21
-31.499999999999993
31
0
0
LINE
5
159
100
AcDbEntity
8
0
100
AcDbLine
10
6.1543071601268512e-14
20
-31.499999999999993
30
0
11
0.54322330470342506
21
-31.499999999999982
31
0
0
ARC
5
160
100
AcDbEntity
8
0
100
AcDbCircle
10
7.6316116523516841
20
-34.808388347648304
30
0
40
0.12500000000000266
210
0
220
0
230
1
100
AcDbArc
50
-45
51
134.99999999999773
0
LINE
5
161
100
AcDbEntity
8
0
100
AcDbLine
10
7.7200000000000033
20
-34.896776695296623
30
0
11
7.7200000000000033
21
-35.263223304703359
31
0
0
ARC
5
162
100
AcDbEntity
8
0
100
AcDbCircle
10
7.6316116523516841
20
-35.351611652351679
30
0
40
0.12499999999999674
210
0
220
0
230
1
100
AcDbArc
50
-135.00000000000318
51
45
0
LINE
5
163
100
AcDbEntity
8
0
100
AcDbLine
10
7.5432233047033623
20
-35.439999999999991
30
0
11
3.8967766952966447
21
-35.439999999999991
31
0
0
ARC
5
164
100
AcDbEntity
8
0
100
AcDbCircle
10
3.8083883476483238
20
-35.351611652351679
30
0
40
0.12500000000000314
210
0
220
0
230
1
100
AcDbArc
50
135.00000000000017
51
315.0000000000029
0
LINE
5
165
100
AcDbEntity
8
0
100
AcDbLine
10
3.7200000000000042
20
-35.263223304703359
30
0
11
3.7200000000000046
21
-34.896776695296623
31
0
0
ARC
5
166
100
AcDbEntity
8
0
100
AcDbCircle
10
3.8083883476483238
20
-34.808388347648304
30
0
40
0.12499999999999623
210
0
220
-0
230
1
100
AcDbArc
50
44.999999999997115
51
225
0
LINE
5
167
100
AcDbEntity
8
0
100
AcDbLine
10
3.8967766952966447
20
-34.719999999999992
30
0
11
7.543223304703365
21
-34.719999999999978
31
0
0
ENDSEC
0
SECTION
2
OBJECTS
0
DICTIONARY
5
C
100
AcDbDictionary
3
ACAD_GROUP
350
D
3
ACAD_MLINESTYLE
350
17
0
DICTIONARY
5
D
100
AcDbDictionary
0
DICTIONARY
5
1A
330
C
100
AcDbDictionary
0
DICTIONARY
5
17
100
AcDbDictionary
0
ENDSEC
0
EOF
