0
SECTION
2
HEADER
9
$INSUNITS
70
1
9
$ACADVER
1
AC1014
9
$HANDSEED
5
FFFF
0
ENDSEC
0
SECTION
2
TABLES
0
TABLE
2
VPORT
5
8
100
AcDbSymbolTable
0
ENDTAB
0
TABLE
2
LTYPE
5
5
100
AcDbSymbolTable
0
LTYPE
5
14
100
AcDbSymbolTableRecord
100
AcDbLinetypeTableRecord
2
BYBLOCK
70
0
0
LTYPE
5
15
100
AcDbSymbolTableRecord
100
AcDbLinetypeTableRecord
2
BYLAYER
70
0
0
ENDTAB
0
TABLE
2
LAYER
5
2
100
AcDbSymbolTable
70
2
0
LAYER
5
50
100
AcDbSymbolTableRecord
100
AcDbLayerTableRecord
2
0
70
0
6
CONTINUOUS
0
ENDTAB
0
TABLE
2
STYLE
5
3
100
AcDbSymbolTable
70
1
0
STYLE
5
11
100
AcDbSymbolTableRecord
100
AcDbTextStyleTableRecord
2
STANDARD
70
0
0
ENDTAB
0
TABLE
2
VIEW
5
6
100
AcDbSymbolTable
70
0
0
ENDTAB
0
TABLE
2
UCS
5
7
100
AcDbSymbolTable
70
0
0
ENDTAB
0
TABLE
2
APPID
5
9
100
AcDbSymbolTable
70
2
0
APPID
5
12
100
AcDbSymbolTableRecord
100
AcDbRegAppTableRecord
2
ACAD
70
0
0
ENDTAB
0
TABLE
2
DIMSTYLE
5
A
100
AcDbSymbolTable
70
1
0
ENDTAB
0
TABLE
2
BLOCK_RECORD
5
1
100
AcDbSymbolTable
70
1
0
BLOCK_RECORD
5
1F
100
AcDbSymbolTableRecord
100
AcDbBlockTableRecord
2
*MODEL_SPACE
0
BLOCK_RECORD
5
1B
100
AcDbSymbolTableRecord
100
AcDbBlockTableRecord
2
*PAPER_SPACE
0
ENDTAB
0
ENDSEC
0
SECTION
2
BLOCKS
0
BLOCK
5
20
100
AcDbEntity
100
AcDbBlockBegin
2
*MODEL_SPACE
0
ENDBLK
5
21
100
AcDbEntity
100
AcDbBlockEnd
0
BLOCK
5
1C
100
AcDbEntity
100
AcDbBlockBegin
2
*PAPER_SPACE
0
ENDBLK
5
1D
100
AcDbEntity
100
AcDbBlockEnd
0
ENDSEC
0
SECTION
2
ENTITIES
0
ARC
5
100
100
AcDbEntity
8
0
100
AcDbCircle
10
-0.63161165235169492
20
22.911611652351688
30
0
40
0.12500000000000031
210
0
220
-0
230
1
100
AcDbArc
50
45.000000000000249
51
225.00000000000026
0
LINE
5
101
100
AcDbEntity
8
0
100
AcDbLine
10
-0.54322330470337654
20
23.000000000000007
30
0
11
-1.2763193826399437e-14
21
23.000000000000007
31
0
0
LINE
5
102
100
AcDbEntity
8
0
100
AcDbLine
10
-1.2763193826399437e-14
20
23.000000000000007
30
0
11
-1.4988010832439613e-14
21
27.000000000000007
31
0
0
LINE
5
103
100
AcDbEntity
8
0
100
AcDbLine
10
-1.4988010832439613e-14
20
27.000000000000007
30
0
11
-0.54322330470337632
21
27.000000000000007
31
0
0
ARC
5
104
100
AcDbEntity
8
0
100
AcDbCircle
10
-0.63161165235169792
20
27.088388347648323
30
0
40
0.12499999999999883
210
0
220
0
230
1
100
AcDbArc
50
134.99999999999997
51
315.00000000000193
0
LINE
5
105
100
AcDbEntity
8
0
100
AcDbLine
10
-0.72000000000001696
20
27.176776695296642
30
0
11
-0.7200000000000174
21
30.000000000000032
31
0
0
LINE
5
106
100
AcDbEntity
8
0
100
AcDbLine
10
-0.7200000000000174
20
30.000000000000032
30
0
11
-23.28000000000004
21
30.000000000000021
31
0
0
LINE
5
107
100
AcDbEntity
8
0
100
AcDbLine
10
-23.28000000000004
20
30.000000000000021
30
0
11
-23.280000000000037
21
27.176776695296645
31
0
0
ARC
5
108
100
AcDbEntity
8
0
100
AcDbCircle
10
-23.368388347648352
20
27.088388347648323
30
0
40
0.12499999999999674
210
0
220
0
230
1
100
AcDbArc
50
-135.00000000000463
51
45.000000000002302
0
LINE
5
109
100
AcDbEntity
8
0
100
AcDbLine
10
-23.456776695296675
20
27.000000000000014
30
0
11
-24.000000000000039
21
27.000000000000014
31
0
0
LINE
5
110
100
AcDbEntity
8
0
100
AcDbLine
10
-24.000000000000039
20
27.000000000000014
30
0
11
-24.000000000000039
21
23.000000000000011
31
0
0
LINE
5
111
100
AcDbEntity
8
0
100
AcDbLine
10
-24.000000000000039
20
23.000000000000011
30
0
11
-23.456776695296679
21
23.000000000000011
31
0
0
ARC
5
112
100
AcDbEntity
8
0
100
AcDbCircle
10
-23.368388347648356
20
22.911611652351692
30
0
40
0.12500000000000069
210
-0
220
0
230
1
100
AcDbArc
50
-45
51
135.00000000000117
0
LINE
5
113
100
AcDbEntity
8
0
100
AcDbLine
10
-23.280000000000037
20
22.823223304703372
30
0
11
-23.28000000000003
21
7.8967766952966381
31
0
0
ARC
5
114
100
AcDbEntity
8
0
100
AcDbCircle
10
-23.368388347648349
20
7.8083883476483189
30
0
40
0.12499999999999971
210
0
220
0
230
1
100
AcDbArc
50
-135.0000000000006
51
45
0
LINE
5
115
100
AcDbEntity
8
0
100
AcDbLine
10
-23.456776695296668
20
7.7200000000000015
30
0
11
-24.000000000000028
21
7.7200000000000015
31
0
0
LINE
5
116
100
AcDbEntity
8
0
100
AcDbLine
10
-24.000000000000028
20
7.7200000000000015
30
0
11
-24.000000000000028
21
3.7199999999999962
31
0
0
LINE
5
117
100
AcDbEntity
8
0
100
AcDbLine
10
-24.000000000000028
20
3.7199999999999962
30
0
11
-23.456776695296668
21
3.7199999999999971
31
0
0
ARC
5
118
100
AcDbEntity
8
0
100
AcDbCircle
10
-23.368388347648345
20
3.6316116523516788
30
0
40
0.12500000000000019
210
-0
220
0
230
1
100
AcDbArc
50
-44.999999999999694
51
135.00000000000145
0
LINE
5
119
100
AcDbEntity
8
0
100
AcDbLine
10
-23.280000000000026
20
3.5432233047033606
30
0
11
-23.280000000000022
21
0.71999999999999442
31
0
0
LINE
5
120
100
AcDbEntity
8
0
100
AcDbLine
10
-23.280000000000022
20
0.71999999999999442
30
0
11
-14.176776695296654
21
0.71999999999999886
31
0
0
ARC
5
121
100
AcDbEntity
8
0
100
AcDbCircle
10
-14.088388347648335
20
0.63161165235168182
30
0
40
0.12500000000000042
210
-0
220
0
230
1
100
AcDbArc
50
-44.999999999999794
51
135.00000000000068
0
LINE
5
122
100
AcDbEntity
8
0
100
AcDbLine
10
-14.000000000000016
20
0.54322330470336322
30
0
11
-14.000000000000016
21
-1.7483827159451283e-15
31
0
0
LINE
5
123
100
AcDbEntity
8
0
100
AcDbLine
10
-14.000000000000016
20
-1.7483827159451283e-15
30
0
11
-10.000000000000012
21
4.8080524688491054e-16
31
0
0
LINE
5
124
100
AcDbEntity
8
0
100
AcDbLine
10
-10.000000000000012
20
4.8080524688491054e-16
30
0
11
-10.000000000000011
21
0.54322330470336211
31
0
0
ARC
5
125
100
AcDbEntity
8
0
100
AcDbCircle
10
-9.9116116523516915
20
0.63161165235168126
30
0
40
0.12499999999999933
210
0
220
-0
230
1
100
AcDbArc
50
45.000000000001364
51
225
0
LINE
5
126
100
AcDbEntity
8
0
100
AcDbLine
10
-9.8232233047033759
20
0.72000000000000108
30
0
11
-0.72000000000000175
21
0.72000000000000641
31
0
0
LINE
5
127
100
AcDbEntity
8
0
100
AcDbLine
10
-0.72000000000000175
20
0.72000000000000641
30
0
11
-0.72000000000000275
21
3.5432233047033717
31
0
0
ARC
5
128
100
AcDbEntity
8
0
100
AcDbCircle
10
-0.63161165235168426
20
3.6316116523516899
30
0
40
0.12500000000000019
210
0
220
-0
230
1
100
AcDbArc
50
44.999999999999787
51
224.99999999999991
0
LINE
5
129
100
AcDbEntity
8
0
100
AcDbLine
10
-0.54322330470336533
20
3.7200000000000082
30
0
11
-2.0980592591341539e-15
21
3.7200000000000091
31
0
0
LINE
5
130
100
AcDbEntity
8
0
100
AcDbLine
10
-2.0980592591341539e-15
20
3.7200000000000091
30
0
11
-4.2854608750531107e-15
21
7.7200000000000131
31
0
0
LINE
5
131
100
AcDbEntity
8
0
100
AcDbLine
10
-4.2854608750531107e-15
20
7.7200000000000131
30
0
11
-0.54322330470336799
21
7.7200000000000131
31
0
0
ARC
5
132
100
AcDbEntity
8
0
100
AcDbCircle
10
-0.63161165235168615
20
7.8083883476483305
30
0
40
0.12500000000000094
210
0
220
0
230
1
100
AcDbArc
50
135.00000000000006
51
315.00000000000028
0
LINE
5
133
100
AcDbEntity
8
0
100
AcDbLine
10
-0.72000000000000541
20
7.8967766952966496
30
0
11
-0.7200000000000133
21
22.823223304703369
31
0
0
ENDSEC
0
SECTION
2
OBJECTS
0
DICTIONARY
5
C
100
AcDbDictionary
3
ACAD_GROUP
350
D
3
ACAD_MLINESTYLE
350
17
0
DICTIONARY
5
D
100
AcDbDictionary
0
DICTIONARY
5
1A
330
C
100
AcDbDictionary
0
DICTIONARY
5
17
100
AcDbDictionary
0
ENDSEC
0
EOF
