0
SECTION
2
HEADER
9
$INSUNITS
70
1
9
$ACADVER
1
AC1014
9
$HANDSEED
5
FFFF
0
ENDSEC
0
SECTION
2
TABLES
0
TABLE
2
VPORT
5
8
100
AcDbSymbolTable
0
ENDTAB
0
TABLE
2
LTYPE
5
5
100
AcDbSymbolTable
0
LTYPE
5
14
100
AcDbSymbolTableRecord
100
AcDbLinetypeTableRecord
2
BYBLOCK
70
0
0
LTYPE
5
15
100
AcDbSymbolTableRecord
100
AcDbLinetypeTableRecord
2
BYLAYER
70
0
0
ENDTAB
0
TABLE
2
LAYER
5
2
100
AcDbSymbolTable
70
2
0
LAYER
5
50
100
AcDbSymbolTableRecord
100
AcDbLayerTableRecord
2
0
70
0
6
CONTINUOUS
0
ENDTAB
0
TABLE
2
STYLE
5
3
100
AcDbSymbolTable
70
1
0
STYLE
5
11
100
AcDbSymbolTableRecord
100
AcDbTextStyleTableRecord
2
STANDARD
70
0
0
ENDTAB
0
TABLE
2
VIEW
5
6
100
AcDbSymbolTable
70
0
0
ENDTAB
0
TABLE
2
UCS
5
7
100
AcDbSymbolTable
70
0
0
ENDTAB
0
TABLE
2
APPID
5
9
100
AcDbSymbolTable
70
2
0
APPID
5
12
100
AcDbSymbolTableRecord
100
AcDbRegAppTableRecord
2
ACAD
70
0
0
ENDTAB
0
TABLE
2
DIMSTYLE
5
A
100
AcDbSymbolTable
70
1
0
ENDTAB
0
TABLE
2
BLOCK_RECORD
5
1
100
AcDbSymbolTable
70
1
0
BLOCK_RECORD
5
1F
100
AcDbSymbolTableRecord
100
AcDbBlockTableRecord
2
*MODEL_SPACE
0
BLOCK_RECORD
5
1B
100
AcDbSymbolTableRecord
100
AcDbBlockTableRecord
2
*PAPER_SPACE
0
ENDTAB
0
ENDSEC
0
SECTION
2
BLOCKS
0
BLOCK
5
20
100
AcDbEntity
100
AcDbBlockBegin
2
*MODEL_SPACE
0
ENDBLK
5
21
100
AcDbEntity
100
AcDbBlockEnd
0
BLOCK
5
1C
100
AcDbEntity
100
AcDbBlockBegin
2
*PAPER_SPACE
0
ENDBLK
5
1D
100
AcDbEntity
100
AcDbBlockEnd
0
ENDSEC
0
SECTION
2
ENTITIES
0
ARC
5
100
100
AcDbEntity
8
0
100
AcDbCircle
10
-0.6316116523516816
20
-31.588388347648305
30
0
40
0.12500000000000056
210
0
220
-0
230
1
100
AcDbArc
50
44.999999999998096
51
224.99999999999804
0
LINE
5
101
100
AcDbEntity
8
0
100
AcDbLine
10
-0.54322330470336011
20
-31.499999999999989
30
0
11
0
21
-31.499999999999989
31
0
0
LINE
5
102
100
AcDbEntity
8
0
100
AcDbLine
10
0
20
-31.499999999999989
30
0
11
0
21
-27.499999999999989
31
0
0
LINE
5
103
100
AcDbEntity
8
0
100
AcDbLine
10
0
20
-27.499999999999989
30
0
11
-0.54322330470336022
21
-27.499999999999989
31
0
0
ARC
5
104
100
AcDbEntity
8
0
100
AcDbCircle
10
-0.6316116523516816
20
-27.411611652351674
30
0
40
0.1249999999999989
210
0
220
0
230
1
100
AcDbArc
50
135.00000000000119
51
315.00000000000188
0
LINE
5
105
100
AcDbEntity
8
0
100
AcDbLine
10
-0.72000000000000086
20
-27.323223304703358
30
0
11
-0.71999999999999997
21
-11.676776695296629
31
0
0
ARC
5
106
100
AcDbEntity
8
0
100
AcDbCircle
10
-0.63161165235168104
20
-11.58838834764831
30
0
40
0.12500000000000011
210
0
220
-0
230
1
100
AcDbArc
50
45.000000000000327
51
225.00000000000006
0
LINE
5
107
100
AcDbEntity
8
0
100
AcDbLine
10
-0.54322330470336289
20
-11.499999999999991
30
0
11
0
21
-11.499999999999991
31
0
0
LINE
5
108
100
AcDbEntity
8
0
100
AcDbLine
10
0
20
-11.499999999999991
30
0
11
0
21
-7.4999999999999911
31
0
0
LINE
5
109
100
AcDbEntity
8
0
100
AcDbLine
10
0
20
-7.4999999999999911
30
0
11
-0.54322330470336277
21
-7.4999999999999911
31
0
0
ARC
5
110
100
AcDbEntity
8
0
100
AcDbCircle
10
-0.63161165235168193
20
-7.4116116523516737
30
0
40
0.12500000000000011
210
0
220
0
230
1
100
AcDbArc
50
134.99999999999966
51
315.00000000000057
0
LINE
5
111
100
AcDbEntity
8
0
100
AcDbLine
10
-0.71999999999999997
20
-7.3232233047033546
30
0
11
-0.72000000000001541
21
0
31
0
0
LINE
5
112
100
AcDbEntity
8
0
100
AcDbLine
10
-0.72000000000001541
20
0
30
0
11
-10.543223304703375
21
-1.9060674183552024e-14
31
0
0
ARC
5
113
100
AcDbEntity
8
0
100
AcDbCircle
10
-10.631611652351694
20
0.088388347648299379
30
0
40
0.12499999999999978
210
0
220
0
230
1
100
AcDbArc
50
135.00000000000051
51
315.00000000000028
0
LINE
5
114
100
AcDbEntity
8
0
100
AcDbLine
10
-10.720000000000013
20
0.17677669529661699
30
0
11
-10.720000000000015
21
0.71999999999998077
31
0
0
LINE
5
115
100
AcDbEntity
8
0
100
AcDbLine
10
-10.720000000000015
20
0.71999999999998077
30
0
11
-20.000000000000011
21
0.71999999999996256
31
0
0
LINE
5
116
100
AcDbEntity
8
0
100
AcDbLine
10
-20.000000000000011
20
0.71999999999996256
30
0
11
-20.000000000000011
21
0.17677669529660034
31
0
0
ARC
5
117
100
AcDbEntity
8
0
100
AcDbCircle
10
-20.088388347648326
20
0.088388347648280616
30
0
40
0.12500000000000047
210
0
220
0
230
1
100
AcDbArc
50
-135.00000000000017
51
45.000000000001329
0
LINE
5
118
100
AcDbEntity
8
0
100
AcDbLine
10
-20.176776695296645
20
-3.8005469287857227e-14
30
0
11
-29.280000000000015
21
-5.7346953083000211e-14
31
0
0
LINE
5
119
100
AcDbEntity
8
0
100
AcDbLine
10
-29.280000000000015
20
-5.7346953083000211e-14
30
0
11
-29.280000000000015
21
-2.8232233047034159
31
0
0
ARC
5
120
100
AcDbEntity
8
0
100
AcDbCircle
10
-29.368388347648324
20
-2.9116116523517395
30
0
40
0.12499999999999747
210
0
220
0
230
1
100
AcDbArc
50
-135.00000000000074
51
45.000000000004896
0
LINE
5
121
100
AcDbEntity
8
0
100
AcDbLine
10
-29.456776695296643
20
-3.0000000000000564
30
0
11
-30.000000000000011
21
-3.0000000000000591
31
0
0
LINE
5
122
100
AcDbEntity
8
0
100
AcDbLine
10
-30.000000000000011
20
-3.0000000000000591
30
0
11
-29.999999999999943
21
-36.780000000000051
31
0
0
LINE
5
123
100
AcDbEntity
8
0
100
AcDbLine
10
-29.999999999999943
20
-36.780000000000051
30
0
11
-0.72000000000000042
21
-36.779999999999987
31
0
0
LINE
5
124
100
AcDbEntity
8
0
100
AcDbLine
10
-0.72000000000000042
20
-36.779999999999987
30
0
11
-0.72000000000000319
21
-31.676776695296621
31
0
0
LWPOLYLINE
5
125
100
AcDbEntity
8
0
100
AcDbPolyline
90
8
70
1
43
0.0
10
-21.99999999999995
20
-32.780000000000015
10
-8.7199999999999935
20
-32.779999999999994
42
0.41421356237309448
10
-4.7199999999999998
20
-28.779999999999994
10
-4.7200000000000006
20
-9.9999999999999964
42
0.41421356237309592
10
-8.7200000000000113
20
-5.9999999999999964
10
-21.999999999999996
20
-6.0000000000000302
42
0.41421356237309465
10
-25.999999999999982
20
-10.000000000000036
10
-25.999999999999954
20
-28.780000000000022
42
0.41421356237309509
0
ENDSEC
0
SECTION
2
OBJECTS
0
DICTIONARY
5
C
100
AcDbDictionary
3
ACAD_GROUP
350
D
3
ACAD_MLINESTYLE
350
17
0
DICTIONARY
5
D
100
AcDbDictionary
0
DICTIONARY
5
1A
330
C
100
AcDbDictionary
0
DICTIONARY
5
17
100
AcDbDictionary
0
ENDSEC
0
EOF
