0
SECTION
2
HEADER
9
$INSUNITS
70
1
9
$ACADVER
1
AC1014
9
$HANDSEED
5
FFFF
0
ENDSEC
0
SECTION
2
TABLES
0
TABLE
2
VPORT
5
8
100
AcDbSymbolTable
0
ENDTAB
0
TABLE
2
LTYPE
5
5
100
AcDbSymbolTable
0
LTYPE
5
14
100
AcDbSymbolTableRecord
100
AcDbLinetypeTableRecord
2
BYBLOCK
70
0
0
LTYPE
5
15
100
AcDbSymbolTableRecord
100
AcDbLinetypeTableRecord
2
BYLAYER
70
0
0
ENDTAB
0
TABLE
2
LAYER
5
2
100
AcDbSymbolTable
70
2
0
LAYER
5
50
100
AcDbSymbolTableRecord
100
AcDbLayerTableRecord
2
0
70
0
6
CONTINUOUS
0
ENDTAB
0
TABLE
2
STYLE
5
3
100
AcDbSymbolTable
70
1
0
STYLE
5
11
100
AcDbSymbolTableRecord
100
AcDbTextStyleTableRecord
2
STANDARD
70
0
0
ENDTAB
0
TABLE
2
VIEW
5
6
100
AcDbSymbolTable
70
0
0
ENDTAB
0
TABLE
2
UCS
5
7
100
AcDbSymbolTable
70
0
0
ENDTAB
0
TABLE
2
APPID
5
9
100
AcDbSymbolTable
70
2
0
APPID
5
12
100
AcDbSymbolTableRecord
100
AcDbRegAppTableRecord
2
ACAD
70
0
0
ENDTAB
0
TABLE
2
DIMSTYLE
5
A
100
AcDbSymbolTable
70
1
0
ENDTAB
0
TABLE
2
BLOCK_RECORD
5
1
100
AcDbSymbolTable
70
1
0
BLOCK_RECORD
5
1F
100
AcDbSymbolTableRecord
100
AcDbBlockTableRecord
2
*MODEL_SPACE
0
BLOCK_RECORD
5
1B
100
AcDbSymbolTableRecord
100
AcDbBlockTableRecord
2
*PAPER_SPACE
0
ENDTAB
0
ENDSEC
0
SECTION
2
BLOCKS
0
BLOCK
5
20
100
AcDbEntity
100
AcDbBlockBegin
2
*MODEL_SPACE
0
ENDBLK
5
21
100
AcDbEntity
100
AcDbBlockEnd
0
BLOCK
5
1C
100
AcDbEntity
100
AcDbBlockBegin
2
*PAPER_SPACE
0
ENDBLK
5
1D
100
AcDbEntity
100
AcDbBlockEnd
0
ENDSEC
0
SECTION
2
ENTITIES
0
ARC
5
100
100
AcDbEntity
8
0
100
AcDbCircle
10
-36.088388347648319
20
29.911611652351681
30
0
40
0.12500000000000464
210
-0
220
0
230
1
100
AcDbArc
50
-44.999999999997712
51
134.99999999999886
0
LINE
5
101
100
AcDbEntity
8
0
100
AcDbLine
10
-35.999999999999993
20
29.823223304703362
30
0
11
-35.999999999999993
21
29.456776695296636
31
0
0
ARC
5
102
100
AcDbEntity
8
0
100
AcDbCircle
10
-36.088388347648319
20
29.368388347648313
30
0
40
0.12499999999999674
210
0
220
0
230
1
100
AcDbArc
50
-134.99999999999886
51
44.999999999998849
0
LINE
5
103
100
AcDbEntity
8
0
100
AcDbLine
10
-36.176776695296631
20
29.279999999999998
30
0
11
-41.823223304703362
21
29.279999999999998
31
0
0
ARC
5
104
100
AcDbEntity
8
0
100
AcDbCircle
10
-41.911611652351681
20
29.368388347648313
30
0
40
0.12500000000000464
210
0
220
0
230
1
100
AcDbArc
50
134.99999999999886
51
315.00000000000119
0
LINE
5
105
100
AcDbEntity
8
0
100
AcDbLine
10
-42
20
29.456776695296636
30
0
11
-42
21
29.823223304703362
31
0
0
ARC
5
106
100
AcDbEntity
8
0
100
AcDbCircle
10
-41.911611652351681
20
29.911611652351681
30
0
40
0.12499999999999674
210
0
220
-0
230
1
100
AcDbArc
50
45
51
225
0
LINE
5
107
100
AcDbEntity
8
0
100
AcDbLine
10
-41.823223304703362
20
30
30
0
11
-36.176776695296638
21
30.000000000000004
31
0
0
ARC
5
108
100
AcDbEntity
8
0
100
AcDbCircle
10
-0.63161165235168193
20
10.808388347648318
30
0
40
0.12500000000000006
210
0
220
0
230
1
100
AcDbArc
50
134.99999999999966
51
314.99999999999966
0
LINE
5
109
100
AcDbEntity
8
0
100
AcDbLine
10
-0.71999999999999997
20
10.896776695296637
30
0
11
-0.71999999999999997
21
19.823223304703358
31
0
0
ARC
5
110
100
AcDbEntity
8
0
100
AcDbCircle
10
-0.63161165235168271
20
19.911611652351677
30
0
40
0.12500000000000039
210
0
220
-0
230
1
100
AcDbArc
50
45.00000000000022
51
225.00000000000057
0
LINE
5
111
100
AcDbEntity
8
0
100
AcDbLine
10
-0.54322330470336422
20
19.999999999999996
30
0
11
0
21
19.999999999999996
31
0
0
LINE
5
112
100
AcDbEntity
8
0
100
AcDbLine
10
0
20
19.999999999999996
30
0
11
0
21
30.999999999999996
31
0
0
ARC
5
113
100
AcDbEntity
8
0
100
AcDbCircle
10
-1.0000000000000051
20
30.999999999999989
30
0
40
1.0000000000000051
210
0
220
-0
230
1
100
AcDbArc
50
0
51
89.999999999999545
0
LINE
5
114
100
AcDbEntity
8
0
100
AcDbLine
10
-0.999999999999997
20
31.999999999999993
30
0
11
-77
21
31.999999999999996
31
0
0
ARC
5
115
100
AcDbEntity
8
0
100
AcDbCircle
10
-77
20
31
30
0
40
0.99999999999999678
210
0
220
-0
230
1
100
AcDbArc
50
90
51
180
0
LINE
5
116
100
AcDbEntity
8
0
100
AcDbLine
10
-77.999999999999986
20
30.999999999999989
30
0
11
-78
21
19.999999999999996
31
0
0
LINE
5
117
100
AcDbEntity
8
0
100
AcDbLine
10
-78
20
19.999999999999996
30
0
11
-77.456776695296639
21
19.999999999999996
31
0
0
ARC
5
118
100
AcDbEntity
8
0
100
AcDbCircle
10
-77.36838834764832
20
19.911611652351674
30
0
40
0.12499999999999674
210
0
220
0
230
1
100
AcDbArc
50
-44.99999999999654
51
134.99999999999886
0
LINE
5
119
100
AcDbEntity
8
0
100
AcDbLine
10
-77.280000000000001
20
19.823223304703365
30
0
11
-77.280000000000001
21
10.896776695296632
31
0
0
ARC
5
120
100
AcDbEntity
8
0
100
AcDbCircle
10
-77.36838834764832
20
10.808388347648322
30
0
40
0.12500000000000364
210
0
220
0
230
1
100
AcDbArc
50
-134.99999999999943
51
44.999999999997115
0
LINE
5
121
100
AcDbEntity
8
0
100
AcDbLine
10
-77.456776695296639
20
10.720000000000001
30
0
11
-78
21
10.719999999999999
31
0
0
LINE
5
122
100
AcDbEntity
8
0
100
AcDbLine
10
-78
20
10.719999999999999
30
0
11
-78
21
0
31
0
0
LINE
5
123
100
AcDbEntity
8
0
100
AcDbLine
10
-78
20
0
30
0
11
-62
21
0
31
0
0
LINE
5
124
100
AcDbEntity
8
0
100
AcDbLine
10
-62
20
0
30
0
11
-62
21
0.54322330470336666
31
0
0
ARC
5
125
100
AcDbEntity
8
0
100
AcDbCircle
10
-61.911611652351681
20
0.63161165235167938
30
0
40
0.12500000000000272
210
0
220
-0
230
1
100
AcDbArc
50
44.999999999999922
51
224.9999999999979
0
LINE
5
126
100
AcDbEntity
8
0
100
AcDbLine
10
-61.823223304703362
20
0.71999999999999831
30
0
11
-56.176776695296645
21
0.71999999999999986
31
0
0
ARC
5
127
100
AcDbEntity
8
0
100
AcDbCircle
10
-56.088388347648319
20
0.63161165235167982
30
0
40
0.12499999999999808
210
0
220
0
230
1
100
AcDbArc
50
-44.999999999997812
51
135.00000000000205
0
LINE
5
128
100
AcDbEntity
8
0
100
AcDbLine
10
-56
20
0.54322330470336744
30
0
11
-56
21
0
31
0
0
LINE
5
129
100
AcDbEntity
8
0
100
AcDbLine
10
-56
20
0
30
0
11
-21.999999999999996
21
0
31
0
0
LINE
5
130
100
AcDbEntity
8
0
100
AcDbLine
10
-21.999999999999996
20
0
30
0
11
-22
21
0.54322330470336389
31
0
0
ARC
5
131
100
AcDbEntity
8
0
100
AcDbCircle
10
-21.911611652351681
20
0.63161165235168237
30
0
40
0.12499999999999971
210
0
220
-0
230
1
100
AcDbArc
50
44.99999999999946
51
224.99999999999977
0
LINE
5
132
100
AcDbEntity
8
0
100
AcDbLine
10
-21.823223304703362
20
0.71999999999999986
30
0
11
-16.176776695296638
21
0.71999999999999997
31
0
0
ARC
5
133
100
AcDbEntity
8
0
100
AcDbCircle
10
-16.088388347648319
20
0.63161165235168237
30
0
40
0.12500000000000031
210
-0
220
0
230
1
100
AcDbArc
50
-44.99999999999919
51
135.00000000000051
0
LINE
5
134
100
AcDbEntity
8
0
100
AcDbLine
10
-15.999999999999998
20
0.54322330470336389
30
0
11
-15.999999999999998
21
0
31
0
0
LINE
5
135
100
AcDbEntity
8
0
100
AcDbLine
10
-15.999999999999998
20
0
30
0
11
0
21
0
31
0
0
LINE
5
136
100
AcDbEntity
8
0
100
AcDbLine
10
0
20
0
30
0
11
0
21
10.719999999999999
31
0
0
LINE
5
137
100
AcDbEntity
8
0
100
AcDbLine
10
0
20
10.719999999999999
30
0
11
-0.54322330470336389
21
10.719999999999999
31
0
0
ENDSEC
0
SECTION
2
OBJECTS
0
DICTIONARY
5
C
100
AcDbDictionary
3
ACAD_GROUP
350
D
3
ACAD_MLINESTYLE
350
17
0
DICTIONARY
5
D
100
AcDbDictionary
0
DICTIONARY
5
1A
330
C
100
AcDbDictionary
0
DICTIONARY
5
17
100
AcDbDictionary
0
ENDSEC
0
EOF
